# Blender v2.80 (sub 75) OBJ File: 'grass.blend'
# www.blender.org
mtllib grass.mtl
g Grass_1_Cone
v 1.346186 -0.044968 -0.683547
v 2.212211 -0.044968 0.816453
v 0.480160 -0.044968 0.816453
v 2.589203 9.565787 0.316453
v -1.176507 -0.044968 1.361958
v -1.653069 -0.044968 -0.303242
v 0.027317 -0.044968 0.116643
v -2.140026 9.565786 0.090453
v -0.953361 -0.044968 -1.036166
v 0.300670 -0.044968 -1.530114
v 0.101426 -0.044968 -0.197118
v -0.040766 7.433691 -1.877766
v 2.772529 -0.044968 -0.690347
v 2.735003 -0.044968 0.235980
v 1.951544 -0.044968 -0.259682
v 3.048614 5.099223 0.117699
v 0.388948 -0.044968 1.872563
v -0.422939 -0.044968 1.424982
v 0.370621 -0.044968 0.945658
v -0.457294 5.099222 1.758391
v -1.742763 -0.044968 0.527743
v -2.345397 -0.044968 0.195519
v -1.756366 -0.044968 -0.160266
v -2.370898 3.773382 0.442997
v 0.799641 -0.044968 -1.996030
v 0.613989 -0.044968 -1.333403
v 0.132963 -0.044968 -1.825496
v 0.860743 3.773383 -1.365155
v 1.086766 -0.044968 -1.958428
v 2.002852 -0.044968 -0.998908
v 0.713841 -0.044968 -0.685314
v 2.192888 7.316083 -1.439270
vt 0.250000 0.490000
vt 0.250000 0.250000
vt 0.457846 0.130000
vt 0.042154 0.130000
vt 0.750000 0.490000
vt 0.957846 0.130000
vt 0.542154 0.130000
vt 0.250000 0.490000
vt 0.250000 0.250000
vt 0.457846 0.130000
vt 0.042154 0.130000
vt 0.750000 0.490000
vt 0.957846 0.130000
vt 0.542154 0.130000
vt 0.250000 0.490000
vt 0.250000 0.250000
vt 0.457846 0.130000
vt 0.042154 0.130000
vt 0.750000 0.490000
vt 0.957846 0.130000
vt 0.542154 0.130000
vt 0.250000 0.490000
vt 0.250000 0.250000
vt 0.457846 0.130000
vt 0.042154 0.130000
vt 0.750000 0.490000
vt 0.957846 0.130000
vt 0.542154 0.130000
vt 0.250000 0.490000
vt 0.250000 0.250000
vt 0.457846 0.130000
vt 0.042154 0.130000
vt 0.750000 0.490000
vt 0.957846 0.130000
vt 0.542154 0.130000
vt 0.250000 0.490000
vt 0.250000 0.250000
vt 0.457846 0.130000
vt 0.042154 0.130000
vt 0.750000 0.490000
vt 0.957846 0.130000
vt 0.542154 0.130000
vt 0.250000 0.490000
vt 0.250000 0.250000
vt 0.457846 0.130000
vt 0.042154 0.130000
vt 0.750000 0.490000
vt 0.957846 0.130000
vt 0.542154 0.130000
vt 0.250000 0.490000
vt 0.250000 0.250000
vt 0.457846 0.130000
vt 0.042154 0.130000
vt 0.750000 0.490000
vt 0.957846 0.130000
vt 0.542154 0.130000
vn 0.8645 -0.0599 -0.4991
vn -0.0000 0.0520 0.9986
vn -0.8546 0.1619 -0.4934
vn 0.0000 -1.0000 0.0000
vn -0.9597 -0.0599 0.2746
vn 0.2421 0.0520 -0.9689
vn 0.7095 0.1619 0.6859
vn -0.3658 -0.0599 -0.9288
vn 0.9877 0.0520 0.1476
vn -0.6143 0.1619 0.7723
vn 0.9974 -0.0599 0.0404
vn -0.5339 0.0520 0.8439
vn -0.4584 0.1619 -0.8739
vn -0.4819 -0.0599 0.8742
vn -0.5163 0.0520 -0.8548
vn 0.9866 0.1619 -0.0195
vn 0.9612 -0.0599 0.2693
vn -0.7141 0.0520 0.6981
vn -0.2445 0.1619 -0.9560
vn 0.7220 -0.0599 -0.6893
vn 0.2361 0.0520 0.9703
vn -0.9470 0.1619 -0.2774
usemtl Grass
s off
f 1/1/1 4/2/1 2/3/1
f 2/3/2 4/2/2 3/4/2
f 3/4/3 4/2/3 1/1/3
f 1/5/4 2/6/4 3/7/4
f 5/8/5 8/9/5 6/10/5
f 6/10/6 8/9/6 7/11/6
f 7/11/7 8/9/7 5/8/7
f 5/12/4 6/13/4 7/14/4
f 9/15/8 12/16/8 10/17/8
f 10/17/9 12/16/9 11/18/9
f 11/18/10 12/16/10 9/15/10
f 9/19/4 10/20/4 11/21/4
f 13/22/11 16/23/11 14/24/11
f 14/24/12 16/23/12 15/25/12
f 15/25/13 16/23/13 13/22/13
f 13/26/4 14/27/4 15/28/4
f 17/29/14 20/30/14 18/31/14
f 18/31/15 20/30/15 19/32/15
f 19/32/16 20/30/16 17/29/16
f 17/33/4 18/34/4 19/35/4
f 21/36/14 24/37/14 22/38/14
f 22/38/15 24/37/15 23/39/15
f 23/39/16 24/37/16 21/36/16
f 21/40/4 22/41/4 23/42/4
f 25/43/17 28/44/17 26/45/17
f 26/45/18 28/44/18 27/46/18
f 27/46/19 28/44/19 25/43/19
f 25/47/4 26/48/4 27/49/4
f 29/50/20 32/51/20 30/52/20
f 30/52/21 32/51/21 31/53/21
f 31/53/22 32/51/22 29/50/22
f 29/54/4 30/55/4 31/56/4
g Grass2_Cube
v 0.040702 -0.281286 0.731764
v 0.233533 1.174045 0.705415
v 0.040702 -0.281286 0.275728
v 0.233533 1.174045 0.302078
v 0.080907 -0.281286 0.731764
v 0.269092 1.174045 0.705415
v 0.080907 -0.281286 0.275728
v 0.269092 1.174045 0.302078
v 0.158314 0.412549 0.847915
v 0.158314 0.412549 0.159577
v 0.218999 0.412549 0.159577
v 0.218999 0.412549 0.847915
v 0.461411 2.039428 0.517373
v 0.461411 2.039428 0.490120
v 0.463813 2.039428 0.490120
v 0.463813 2.039428 0.517373
v -0.401704 -0.281286 0.164686
v -0.595930 1.174045 0.177101
v -0.434497 -0.281286 0.619542
v -0.624933 1.174045 0.579394
v -0.441805 -0.281286 0.161795
v -0.631397 1.174045 0.174544
v -0.474598 -0.281286 0.616651
v -0.660401 1.174045 0.576837
v -0.510659 0.412549 0.040379
v -0.560157 0.412549 0.726934
v -0.620685 0.412549 0.722570
v -0.571187 0.412549 0.036015
v -0.836740 2.039428 0.348270
v -0.838700 2.039428 0.375452
v -0.841096 2.039428 0.375279
v -0.839136 2.039428 0.348097
v -0.133902 -0.281286 -0.047840
v -0.113514 1.174045 -0.241391
v -0.576786 -0.281286 -0.156574
v -0.505219 1.174045 -0.337560
v -0.124316 -0.281286 -0.086885
v -0.105036 1.174045 -0.275925
v -0.567199 -0.281286 -0.195619
v -0.496740 1.174045 -0.372094
v 0.006941 0.412549 -0.134365
v -0.661544 0.412549 -0.298488
v -0.647074 0.412549 -0.357423
v 0.021411 0.412549 -0.193300
v -0.241800 2.039428 -0.507532
v -0.268266 2.039428 -0.514030
v -0.267693 2.039428 -0.516364
v -0.241226 2.039428 -0.509866
v -0.726346 -0.281286 -0.084796
v -0.799411 0.302178 -0.112179
v -0.813098 -0.281286 0.076144
v -0.876137 0.302178 0.030163
v -0.740535 -0.281286 -0.092444
v -0.811960 0.302178 -0.118943
v -0.827287 -0.281286 0.068496
v -0.888686 0.302178 0.023399
v -0.745758 -0.003117 -0.148160
v -0.876700 -0.003117 0.094762
v -0.898116 -0.003117 0.083218
v -0.767174 -0.003117 -0.159704
v -0.915602 0.649123 -0.089166
v -0.920787 0.649123 -0.079548
v -0.921635 0.649123 -0.080005
v -0.916450 0.649123 -0.089623
v 0.246618 -0.281286 0.045202
v 0.298592 0.302178 -0.012995
v 0.127994 -0.281286 -0.093923
v 0.193676 0.302178 -0.136044
v 0.258884 -0.281286 0.034744
v 0.309440 0.302178 -0.022245
v 0.140260 -0.281286 -0.104381
v 0.204524 0.302178 -0.145293
v 0.312711 -0.003117 0.050044
v 0.133662 -0.003117 -0.159951
v 0.152175 -0.003117 -0.175736
v 0.331225 -0.003117 0.034259
v 0.319198 0.649123 -0.129638
v 0.312109 0.649123 -0.137952
v 0.312843 0.649123 -0.138577
v 0.319932 0.649123 -0.130262
v -0.298314 -0.281286 0.810890
v -0.358917 0.717559 0.929929
v -0.041180 -0.281286 0.989349
v -0.131496 0.717559 1.087764
v -0.314048 -0.281286 0.833560
v -0.372832 0.717559 0.949978
v -0.056913 -0.281286 1.012019
v -0.145412 0.717559 1.107814
v -0.409829 0.194918 0.831753
v -0.021714 0.194918 1.101117
v -0.045462 0.194918 1.135333
v -0.433577 0.194918 0.865970
v -0.342063 1.311502 1.132002
v -0.326698 1.311502 1.142667
v -0.327638 1.311502 1.144022
v -0.343004 1.311502 1.133356
v -0.716881 -0.281286 0.669890
v -0.818021 0.717559 0.757146
v -0.546394 -0.281286 0.932378
v -0.667235 0.717559 0.989300
v -0.740023 -0.281286 0.684920
v -0.838488 0.717559 0.770439
v -0.569536 -0.281286 0.947408
v -0.687702 0.717559 1.002593
v -0.827998 0.194918 0.647005
v -0.570667 0.194918 1.043200
v -0.605597 0.194918 1.065887
v -0.862928 0.194918 0.669692
v -0.878884 1.311502 0.950571
v -0.868696 1.311502 0.966257
v -0.870080 1.311502 0.967156
v -0.880268 1.311502 0.951469
v 0.345201 -0.281286 1.051324
v 0.424120 0.371039 1.088500
v 0.456545 -0.281286 0.879900
v 0.522596 0.371039 0.936886
v 0.360314 -0.281286 1.061141
v 0.437486 0.371039 1.097182
v 0.471658 -0.281286 0.889717
v 0.535963 0.371039 0.945568
v 0.361053 0.029713 1.123700
v 0.529114 0.029713 0.864955
v 0.551925 0.029713 0.879772
v 0.383864 0.029713 1.138517
v 0.555690 0.758931 1.073452
v 0.562344 0.758931 1.063208
v 0.563247 0.758931 1.063795
v 0.556593 0.758931 1.074039
vt 0.494189 0.000000
vt 0.625000 0.000000
vt 0.625000 0.250000
vt 0.494189 0.250000
vt 0.625000 0.500000
vt 0.494189 0.500000
vt 0.625000 0.750000
vt 0.494189 0.750000
vt 0.625000 1.000000
vt 0.494189 1.000000
vt 0.125000 0.500000
vt 0.375000 0.500000
vt 0.375000 0.750000
vt 0.125000 0.750000
vt 0.625000 0.000000
vt 0.625000 0.250000
vt 0.375000 1.000000
vt 0.375000 0.250000
vt 0.375000 0.000000
vt 0.625000 0.500000
vt 0.875000 0.500000
vt 0.875000 0.750000
vt 0.625000 0.750000
vt 0.625000 1.000000
vt 0.494189 0.000000
vt 0.625000 0.000000
vt 0.625000 0.250000
vt 0.494189 0.250000
vt 0.625000 0.500000
vt 0.494189 0.500000
vt 0.625000 0.750000
vt 0.494189 0.750000
vt 0.625000 1.000000
vt 0.494189 1.000000
vt 0.125000 0.500000
vt 0.375000 0.500000
vt 0.375000 0.750000
vt 0.125000 0.750000
vt 0.625000 0.000000
vt 0.625000 0.250000
vt 0.375000 1.000000
vt 0.375000 0.250000
vt 0.375000 0.000000
vt 0.625000 0.500000
vt 0.875000 0.500000
vt 0.875000 0.750000
vt 0.625000 0.750000
vt 0.625000 1.000000
vt 0.494189 0.000000
vt 0.625000 0.000000
vt 0.625000 0.250000
vt 0.494189 0.250000
vt 0.625000 0.500000
vt 0.494189 0.500000
vt 0.625000 0.750000
vt 0.494189 0.750000
vt 0.625000 1.000000
vt 0.494189 1.000000
vt 0.125000 0.500000
vt 0.375000 0.500000
vt 0.375000 0.750000
vt 0.125000 0.750000
vt 0.625000 0.000000
vt 0.625000 0.250000
vt 0.375000 1.000000
vt 0.375000 0.250000
vt 0.375000 0.000000
vt 0.625000 0.500000
vt 0.875000 0.500000
vt 0.875000 0.750000
vt 0.625000 0.750000
vt 0.625000 1.000000
vt 0.494189 0.000000
vt 0.625000 0.000000
vt 0.625000 0.250000
vt 0.494189 0.250000
vt 0.625000 0.500000
vt 0.494189 0.500000
vt 0.625000 0.750000
vt 0.494189 0.750000
vt 0.625000 1.000000
vt 0.494189 1.000000
vt 0.125000 0.500000
vt 0.375000 0.500000
vt 0.375000 0.750000
vt 0.125000 0.750000
vt 0.625000 0.000000
vt 0.625000 0.250000
vt 0.375000 1.000000
vt 0.375000 0.250000
vt 0.375000 0.000000
vt 0.625000 0.500000
vt 0.875000 0.500000
vt 0.875000 0.750000
vt 0.625000 0.750000
vt 0.625000 1.000000
vt 0.494189 0.000000
vt 0.625000 0.000000
vt 0.625000 0.250000
vt 0.494189 0.250000
vt 0.625000 0.500000
vt 0.494189 0.500000
vt 0.625000 0.750000
vt 0.494189 0.750000
vt 0.625000 1.000000
vt 0.494189 1.000000
vt 0.125000 0.500000
vt 0.375000 0.500000
vt 0.375000 0.750000
vt 0.125000 0.750000
vt 0.625000 0.000000
vt 0.625000 0.250000
vt 0.375000 1.000000
vt 0.375000 0.250000
vt 0.375000 0.000000
vt 0.625000 0.500000
vt 0.875000 0.500000
vt 0.875000 0.750000
vt 0.625000 0.750000
vt 0.625000 1.000000
vt 0.494189 0.000000
vt 0.625000 0.000000
vt 0.625000 0.250000
vt 0.494189 0.250000
vt 0.625000 0.500000
vt 0.494189 0.500000
vt 0.625000 0.750000
vt 0.494189 0.750000
vt 0.625000 1.000000
vt 0.494189 1.000000
vt 0.125000 0.500000
vt 0.375000 0.500000
vt 0.375000 0.750000
vt 0.125000 0.750000
vt 0.625000 0.000000
vt 0.625000 0.250000
vt 0.375000 1.000000
vt 0.375000 0.250000
vt 0.375000 0.000000
vt 0.625000 0.500000
vt 0.875000 0.500000
vt 0.875000 0.750000
vt 0.625000 0.750000
vt 0.625000 1.000000
vt 0.494189 0.000000
vt 0.625000 0.000000
vt 0.625000 0.250000
vt 0.494189 0.250000
vt 0.625000 0.500000
vt 0.494189 0.500000
vt 0.625000 0.750000
vt 0.494189 0.750000
vt 0.625000 1.000000
vt 0.494189 1.000000
vt 0.125000 0.500000
vt 0.375000 0.500000
vt 0.375000 0.750000
vt 0.125000 0.750000
vt 0.625000 0.000000
vt 0.625000 0.250000
vt 0.375000 1.000000
vt 0.375000 0.250000
vt 0.375000 0.000000
vt 0.625000 0.500000
vt 0.875000 0.500000
vt 0.875000 0.750000
vt 0.625000 0.750000
vt 0.625000 1.000000
vt 0.494189 0.000000
vt 0.625000 0.000000
vt 0.625000 0.250000
vt 0.494189 0.250000
vt 0.625000 0.500000
vt 0.494189 0.500000
vt 0.625000 0.750000
vt 0.494189 0.750000
vt 0.625000 1.000000
vt 0.494189 1.000000
vt 0.125000 0.500000
vt 0.375000 0.500000
vt 0.375000 0.750000
vt 0.125000 0.750000
vt 0.625000 0.000000
vt 0.625000 0.250000
vt 0.375000 1.000000
vt 0.375000 0.250000
vt 0.375000 0.000000
vt 0.625000 0.500000
vt 0.875000 0.500000
vt 0.875000 0.750000
vt 0.625000 0.750000
vt 0.625000 1.000000
vn -0.9952 0.0983 0.0000
vn 0.0000 0.1839 -0.9829
vn 0.9978 -0.0656 0.0000
vn 0.0000 0.1839 0.9829
vn 0.0000 -1.0000 0.0000
vn -0.9670 0.2546 0.0000
vn 0.0000 -0.1651 0.9863
vn 0.9808 -0.1952 0.0000
vn 0.0000 -0.1651 -0.9863
vn -0.9859 0.1671 0.0000
vn 0.0000 1.0000 0.0000
vn 0.0000 0.2123 0.9772
vn 0.0000 0.2123 -0.9772
vn 0.9756 -0.2195 0.0000
vn 0.9926 0.0983 0.0716
vn -0.0707 0.1839 0.9804
vn -0.9953 -0.0656 -0.0718
vn 0.0707 0.1839 -0.9804
vn 0.9645 0.2546 0.0695
vn 0.0709 -0.1651 -0.9837
vn -0.9782 -0.1952 -0.0705
vn -0.0709 -0.1651 0.9837
vn 0.9834 0.1671 0.0709
vn 0.0703 0.2123 -0.9747
vn -0.0703 0.2123 0.9747
vn -0.9731 -0.2195 -0.0702
vn -0.2373 0.0983 0.9665
vn -0.9546 0.1839 -0.2344
vn 0.2379 -0.0656 -0.9691
vn 0.9546 0.1839 0.2344
vn -0.2306 0.2546 0.9391
vn 0.9578 -0.1651 0.2352
vn 0.2338 -0.1952 -0.9525
vn -0.9578 -0.1651 -0.2352
vn -0.2351 0.1671 0.9575
vn 0.9490 0.2123 0.2330
vn -0.9490 0.2123 -0.2330
vn 0.2326 -0.2195 -0.9475
vn 0.8760 0.0983 0.4722
vn -0.4664 0.1839 0.8652
vn -0.8784 -0.0656 -0.4735
vn 0.4664 0.1839 -0.8652
vn 0.8512 0.2546 0.4588
vn 0.4680 -0.1651 -0.8682
vn -0.8633 -0.1952 -0.4654
vn -0.4680 -0.1651 0.8682
vn 0.8679 0.1671 0.4678
vn 0.4637 0.2123 -0.8602
vn -0.4637 0.2123 0.8602
vn -0.8588 -0.2195 -0.4629
vn -0.7573 0.0983 0.6457
vn -0.6377 0.1839 -0.7480
vn 0.7593 -0.0656 -0.6474
vn 0.6377 0.1839 0.7480
vn -0.7359 0.2546 0.6274
vn 0.6399 -0.1651 0.7505
vn 0.7463 -0.1952 -0.6363
vn -0.6399 -0.1651 -0.7505
vn -0.7502 0.1671 0.6397
vn 0.6340 0.2123 0.7436
vn -0.6340 0.2123 -0.7436
vn 0.7424 -0.2195 -0.6330
vn 0.5674 0.0983 -0.8176
vn 0.8075 0.1839 0.5605
vn -0.5689 -0.0656 0.8198
vn -0.8075 0.1839 -0.5604
vn 0.5514 0.2546 -0.7944
vn -0.8102 -0.1651 -0.5624
vn -0.5592 -0.1952 0.8057
vn 0.8102 -0.1651 0.5624
vn 0.5621 0.1671 -0.8100
vn -0.8028 0.2123 -0.5572
vn 0.8028 0.2123 0.5572
vn -0.5563 -0.2195 0.8015
vn 0.8346 0.0983 -0.5421
vn 0.5354 0.1839 0.8243
vn -0.8368 -0.0656 0.5435
vn -0.5354 0.1839 -0.8243
vn 0.8110 0.2546 -0.5267
vn -0.5372 -0.1651 -0.8271
vn -0.8225 -0.1952 0.5342
vn 0.5372 -0.1651 0.8271
vn 0.8268 0.1671 -0.5370
vn -0.5322 0.2123 -0.8195
vn 0.5323 0.2123 0.8195
vn -0.8182 -0.2195 0.5314
vn -0.8346 0.0983 -0.5421
vn 0.5354 0.1839 -0.8243
vn 0.8368 -0.0656 0.5435
vn -0.5354 0.1839 0.8243
vn -0.8110 0.2546 -0.5268
vn -0.5373 -0.1651 0.8271
vn 0.8225 -0.1952 0.5342
vn 0.5372 -0.1651 -0.8271
vn -0.8268 0.1671 -0.5370
vn -0.5323 0.2123 0.8195
vn 0.5323 0.2123 -0.8195
vn 0.8182 -0.2195 0.5314
usemtl None
s off
f 41/57/23 34/58/23 36/59/23 42/60/23
f 42/60/24 36/59/24 40/61/24 43/62/24
f 43/62/25 40/61/25 38/63/25 44/64/25
f 44/64/26 38/63/26 34/65/26 41/66/26
f 35/67/27 39/68/27 37/69/27 33/70/27
f 36/59/28 34/58/28 45/71/28 46/72/28
f 37/69/29 44/64/29 41/66/29 33/73/29
f 39/68/30 43/62/30 44/64/30 37/69/30
f 35/74/31 42/60/31 43/62/31 39/68/31
f 33/75/32 41/57/32 42/60/32 35/74/32
f 47/76/33 46/77/33 45/78/33 48/79/33
f 34/65/34 38/63/34 48/79/34 45/80/34
f 40/61/35 36/59/35 46/72/35 47/76/35
f 38/63/36 40/61/36 47/76/36 48/79/36
f 57/81/37 50/82/37 52/83/37 58/84/37
f 58/84/38 52/83/38 56/85/38 59/86/38
f 59/86/39 56/85/39 54/87/39 60/88/39
f 60/88/40 54/87/40 50/89/40 57/90/40
f 51/91/27 55/92/27 53/93/27 49/94/27
f 52/83/41 50/82/41 61/95/41 62/96/41
f 53/93/42 60/88/42 57/90/42 49/97/42
f 55/92/43 59/86/43 60/88/43 53/93/43
f 51/98/44 58/84/44 59/86/44 55/92/44
f 49/99/45 57/81/45 58/84/45 51/98/45
f 63/100/33 62/101/33 61/102/33 64/103/33
f 50/89/46 54/87/46 64/103/46 61/104/46
f 56/85/47 52/83/47 62/96/47 63/100/47
f 54/87/48 56/85/48 63/100/48 64/103/48
f 73/105/49 66/106/49 68/107/49 74/108/49
f 74/108/50 68/107/50 72/109/50 75/110/50
f 75/110/51 72/109/51 70/111/51 76/112/51
f 76/112/52 70/111/52 66/113/52 73/114/52
f 67/115/27 71/116/27 69/117/27 65/118/27
f 68/107/53 66/106/53 77/119/53 78/120/53
f 69/117/54 76/112/54 73/114/54 65/121/54
f 71/116/55 75/110/55 76/112/55 69/117/55
f 67/122/56 74/108/56 75/110/56 71/116/56
f 65/123/57 73/105/57 74/108/57 67/122/57
f 79/124/33 78/125/33 77/126/33 80/127/33
f 66/113/58 70/111/58 80/127/58 77/128/58
f 72/109/59 68/107/59 78/120/59 79/124/59
f 70/111/60 72/109/60 79/124/60 80/127/60
f 89/129/61 82/130/61 84/131/61 90/132/61
f 90/132/62 84/131/62 88/133/62 91/134/62
f 91/134/63 88/133/63 86/135/63 92/136/63
f 92/136/64 86/135/64 82/137/64 89/138/64
f 83/139/27 87/140/27 85/141/27 81/142/27
f 84/131/65 82/130/65 93/143/65 94/144/65
f 85/141/66 92/136/66 89/138/66 81/145/66
f 87/140/67 91/134/67 92/136/67 85/141/67
f 83/146/68 90/132/68 91/134/68 87/140/68
f 81/147/69 89/129/69 90/132/69 83/146/69
f 95/148/33 94/149/33 93/150/33 96/151/33
f 82/137/70 86/135/70 96/151/70 93/152/70
f 88/133/71 84/131/71 94/144/71 95/148/71
f 86/135/72 88/133/72 95/148/72 96/151/72
f 105/153/73 98/154/73 100/155/73 106/156/73
f 106/156/74 100/155/74 104/157/74 107/158/74
f 107/158/75 104/157/75 102/159/75 108/160/75
f 108/160/76 102/159/76 98/161/76 105/162/76
f 99/163/27 103/164/27 101/165/27 97/166/27
f 100/155/77 98/154/77 109/167/77 110/168/77
f 101/165/78 108/160/78 105/162/78 97/169/78
f 103/164/79 107/158/79 108/160/79 101/165/79
f 99/170/80 106/156/80 107/158/80 103/164/80
f 97/171/81 105/153/81 106/156/81 99/170/81
f 111/172/33 110/173/33 109/174/33 112/175/33
f 98/161/82 102/159/82 112/175/82 109/176/82
f 104/157/83 100/155/83 110/168/83 111/172/83
f 102/159/84 104/157/84 111/172/84 112/175/84
f 121/177/85 114/178/85 116/179/85 122/180/85
f 122/180/86 116/179/86 120/181/86 123/182/86
f 123/182/87 120/181/87 118/183/87 124/184/87
f 124/184/88 118/183/88 114/185/88 121/186/88
f 115/187/27 119/188/27 117/189/27 113/190/27
f 116/179/89 114/178/89 125/191/89 126/192/89
f 117/189/90 124/184/90 121/186/90 113/193/90
f 119/188/91 123/182/91 124/184/91 117/189/91
f 115/194/92 122/180/92 123/182/92 119/188/92
f 113/195/93 121/177/93 122/180/93 115/194/93
f 127/196/33 126/197/33 125/198/33 128/199/33
f 114/185/94 118/183/94 128/199/94 125/200/94
f 120/181/95 116/179/95 126/192/95 127/196/95
f 118/183/96 120/181/96 127/196/96 128/199/96
f 137/201/97 130/202/97 132/203/97 138/204/97
f 138/204/98 132/203/98 136/205/98 139/206/98
f 139/206/99 136/205/99 134/207/99 140/208/99
f 140/208/100 134/207/100 130/209/100 137/210/100
f 131/211/27 135/212/27 133/213/27 129/214/27
f 132/203/101 130/202/101 141/215/101 142/216/101
f 133/213/102 140/208/102 137/210/102 129/217/102
f 135/212/103 139/206/103 140/208/103 133/213/103
f 131/218/104 138/204/104 139/206/104 135/212/104
f 129/219/105 137/201/105 138/204/105 131/218/105
f 143/220/33 142/221/33 141/222/33 144/223/33
f 130/209/106 134/207/106 144/223/106 141/224/106
f 136/205/107 132/203/107 142/216/107 143/220/107
f 134/207/108 136/205/108 143/220/108 144/223/108
f 153/225/109 146/226/109 148/227/109 154/228/109
f 154/228/110 148/227/110 152/229/110 155/230/110
f 155/230/111 152/229/111 150/231/111 156/232/111
f 156/232/112 150/231/112 146/233/112 153/234/112
f 147/235/27 151/236/27 149/237/27 145/238/27
f 148/227/113 146/226/113 157/239/113 158/240/113
f 149/237/114 156/232/114 153/234/114 145/241/114
f 151/236/115 155/230/115 156/232/115 149/237/115
f 147/242/116 154/228/116 155/230/116 151/236/116
f 145/243/117 153/225/117 154/228/117 147/242/117
f 159/244/33 158/245/33 157/246/33 160/247/33
f 146/233/118 150/231/118 160/247/118 157/248/118
f 152/229/119 148/227/119 158/240/119 159/244/119
f 150/231/120 152/229/120 159/244/120 160/247/120
